<?xml version="1.0" standalone="no"?>
<!DOCTYPE svg PUBLIC "-//W3C//DTD SVG 20010904//EN"
 "http://www.w3.org/TR/2001/REC-SVG-20010904/DTD/svg10.dtd">
<svg version="1.0" xmlns="http://www.w3.org/2000/svg"
 width="256.000000pt" height="256.000000pt" viewBox="0 0 256.000000 256.000000"
 preserveAspectRatio="xMidYMid meet">
<metadata>
Created by potrace 1.11, written by Peter Selinger 2001-2013
</metadata>
<g transform="translate(0.000000,256.000000) scale(0.100000,-0.100000)"
fill="#000000" stroke="none">
<path d="M1085 2405 c-250 -34 -459 -136 -649 -316 -278 -263 -403 -604 -356
-975 39 -311 192 -573 451 -774 203 -156 431 -236 704 -247 347 -13 647 108
906 366 157 158 250 318 307 530 22 85 25 116 25 266 0 150 -3 181 -25 266
-58 217 -149 372 -317 540 -114 113 -204 178 -341 245 -199 98 -456 134 -705
99z m500 -312 c4 -10 10 -64 13 -120 l5 -102 -34 -5 c-19 -3 -56 -7 -83 -10
-65 -8 -110 -37 -130 -86 -20 -51 -36 -149 -36 -227 l0 -62 138 -3 137 -3 3
-124 3 -124 -137 7 -137 7 4 -458 4 -458 -135 0 -135 0 -3 439 c-1 304 -6 443
-13 453 -7 8 -34 13 -73 13 -33 0 -67 4 -74 8 -9 6 -12 36 -10 113 l3 104 35
7 c19 4 52 10 73 13 l37 6 0 112 c0 182 30 283 106 361 53 55 115 91 203 120
89 29 108 33 177 35 41 1 53 -3 59 -16z"/>
</g>
</svg>
